<?xml version="1.0" encoding="UTF-8"?>
<svg version="1.1" xmlns="http://www.w3.org/2000/svg" width="512" height="512">
<path d="M0 0 C1.08829605 -0.01475876 1.08829605 -0.01475876 2.19857788 -0.02981567 C51.34314882 -0.55846324 92.83176976 14.81568796 128.15234375 49.23828125 C154.77568725 75.77228467 173.11467836 115.51748062 173.35546875 153.26171875 C173.36248306 154.00105652 173.36949738 154.74039429 173.37672424 155.50213623 C173.39412152 157.87258064 173.40057566 160.24277536 173.40234375 162.61328125 C173.40301849 163.42263123 173.40369324 164.2319812 173.40438843 165.06585693 C173.38889599 176.74194143 172.99908547 187.86283964 170.15234375 199.23828125 C169.99137207 199.93872559 169.83040039 200.63916992 169.66455078 201.36083984 C162.28729969 233.31475451 145.12672434 260.26390066 122.15234375 283.23828125 C122.64440228 290.14247748 124.24990674 296.88229036 125.69140625 303.640625 C134.10453285 344.26221389 124.55531073 388.36519229 102.09375 422.9609375 C77.90412195 458.81037282 42.82244213 482.5027614 1.15234375 493.23828125 C0.47139648 493.41907227 -0.20955078 493.59986328 -0.91113281 493.78613281 C-22.40422186 499.21607947 -50.370307 498.68160311 -71.84765625 493.23828125 C-73.05881104 492.93229004 -73.05881104 492.93229004 -74.29443359 492.62011719 C-85.95522344 489.57006479 -97.01125336 485.49815408 -107.84765625 480.23828125 C-108.46946777 479.94228027 -109.0912793 479.6462793 -109.73193359 479.34130859 C-124.36406913 472.29733385 -137.15438907 462.459284 -148.84765625 451.23828125 C-149.80027344 450.34882813 -150.75289062 449.459375 -151.734375 448.54296875 C-172.69541773 428.6152882 -188.57931982 400.52523264 -194.84765625 372.23828125 C-194.84765625 370.91828125 -194.84765625 369.59828125 -194.84765625 368.23828125 C-195.44449219 368.16351563 -196.04132813 368.08875 -196.65625 368.01171875 C-233.88435316 362.3694208 -269.00888959 336.69833583 -291.28515625 307.23828125 C-296.86399728 299.63871373 -301.54826229 291.61766929 -305.84765625 283.23828125 C-306.16573242 282.62662109 -306.48380859 282.01496094 -306.81152344 281.38476562 C-312.10343406 271.08848812 -315.87469619 260.41687282 -318.84765625 249.23828125 C-319.06083496 248.44728027 -319.27401367 247.6562793 -319.49365234 246.84130859 C-325.76977938 222.33902993 -325.60473265 192.60208138 -318.84765625 168.23828125 C-318.58452637 167.28244141 -318.32139648 166.32660156 -318.05029297 165.34179688 C-312.34204633 145.32578321 -303.48305775 126.81080061 -290.84765625 110.23828125 C-290.17734375 109.34625 -289.50703125 108.45421875 -288.81640625 107.53515625 C-263.80426989 75.61668373 -227.69874332 54.30224792 -187.84765625 47.23828125 C-186.58050781 47.01269531 -185.31335938 46.78710938 -184.0078125 46.5546875 C-161.81855392 43.23431341 -137.70875125 44.18314835 -116.1875 50.78515625 C-113.33549549 51.3374643 -111.60242449 51.16536672 -108.84765625 50.23828125 C-106.79686907 48.55941563 -106.79686907 48.55941563 -104.91015625 46.36328125 C-91.11262796 31.97181962 -73.83137268 21.53949975 -55.84765625 13.23828125 C-54.70296875 12.70332031 -53.55828125 12.16835938 -52.37890625 11.6171875 C-36.18174465 4.59476947 -17.67369388 0.19909776 0 0 Z " fill="#010101" transform="translate(330.84765625,7.76171875)"/>
<path d="M0 0 C27.90323926 24.96645558 46.7861586 60.30506412 49 98 C49.61924753 112.63303601 49.41104121 126.72632971 46 141 C45.56494141 142.90072266 45.56494141 142.90072266 45.12109375 144.83984375 C38.73294295 170.7399196 25.78217618 194.05590851 7 213 C6.34 213.33 5.68 213.66 5 214 C4.74420166 213.49251221 4.48840332 212.98502441 4.22485352 212.4621582 C-1.19926933 201.76495181 -6.74723235 191.58862343 -14 182 C-14.68320312 181.09378906 -15.36640625 180.18757812 -16.0703125 179.25390625 C-29.66339679 161.97413674 -45.87195368 148.64674276 -65 138 C-65.60618164 137.65727051 -66.21236328 137.31454102 -66.83691406 136.96142578 C-79.93024794 129.65197242 -94.4245755 124.48312887 -109 121 C-109.25652344 119.94425781 -109.51304687 118.88851562 -109.77734375 117.80078125 C-115.41382588 95.62029776 -124.94780388 75.10933113 -139 57 C-139.66386719 56.13117188 -140.32773437 55.26234375 -141.01171875 54.3671875 C-157.72265329 33.17735184 -178.02950315 18.87918428 -202 7 C-182.76172763 -17.43780545 -148.63754667 -31.73707237 -118.625 -36.25 C-74.83169883 -41.4453475 -33.31222321 -28.74878166 0 0 Z " fill="#FC636E" transform="translate(439,61)"/>
<path d="M0 0 C7.04838774 25.04694928 6.74526031 54.18504116 -1 79 C-1.25168945 79.82161621 -1.50337891 80.64323242 -1.76269531 81.48974609 C-7.77593343 100.53923063 -17.2516853 117.65845945 -30 133 C-30.71494629 133.86165771 -30.71494629 133.86165771 -31.44433594 134.74072266 C-47.34415294 153.57060202 -67.98155488 167.35145126 -91 176 C-92.78083984 176.67482422 -92.78083984 176.67482422 -94.59765625 177.36328125 C-131.22084479 190.4182349 -171.93176763 187.26586568 -206.83203125 170.75 C-241.10283364 153.87933113 -268.69103493 123.92462443 -281.32885742 87.69165039 C-284 79.71514642 -284 79.71514642 -284 76 C-283.06019287 75.9906543 -282.12038574 75.98130859 -281.15209961 75.97167969 C-240.7728324 75.50141091 -201.36045804 69.61471507 -169 43 C-168.09636719 42.29488281 -167.19273437 41.58976562 -166.26171875 40.86328125 C-161.36846405 36.98522462 -157.09979728 33.03157008 -152.9375 28.375 C-148.80078512 24.16651246 -148.80078512 24.16651246 -145.5390625 23.48828125 C-142.87223651 23.70280511 -140.56142624 24.2300007 -138 25 C-137.15953125 25.23203125 -136.3190625 25.4640625 -135.453125 25.703125 C-133.62810645 26.21067454 -131.80393834 26.72128838 -129.98046875 27.234375 C-92.23706743 36.92992763 -49.44766847 27.62629039 -16 9 C-12.07973923 6.66817273 -8.28136673 4.19647683 -4.51953125 1.6171875 C-2 0 -2 0 0 0 Z " fill="#6BF3C0" transform="translate(438,303)"/>
<path d="M0 0 C1.05356689 0.00829834 2.10713379 0.01659668 3.19262695 0.02514648 C11.18223495 0.19844481 17.79074514 1.08012993 25.125 4.4375 C26.19492188 4.911875 27.26484375 5.38625 28.3671875 5.875 C45.38870378 14.20553032 58.19954262 29.15367361 64.375 47.0625 C69.11020112 68.37090502 64.95055074 85.91208906 54.625 104.75 C46.78217913 119.37744236 43.94280912 132.29510028 43.78320312 148.8515625 C43.59758864 155.44735154 42.64729589 159.8135027 39.125 165.4375 C38.25875 166.035625 37.3925 166.63375 36.5 167.25 C33.62870422 169.89461454 33.69534913 170.97447518 33.1875 174.75 C32.41891816 180.31662186 30.55935308 183.90688736 26.125 187.4375 C25.465 187.4375 24.805 187.4375 24.125 187.4375 C24.2075 188.406875 24.29 189.37625 24.375 190.375 C24.36281537 196.36983629 21.89015408 201.62589449 17.75 205.875 C11.80975567 209.41085972 6.35971515 209.77618474 -0.375 209.75 C-1.61830078 209.77416992 -1.61830078 209.77416992 -2.88671875 209.79882812 C-9.37764221 209.80398784 -13.49689969 208.4284677 -18.5625 204.1875 C-22.99561552 198.91568695 -24.29297661 194.26445124 -23.875 187.4375 C-24.74125 187.0971875 -24.74125 187.0971875 -25.625 186.75 C-29.01722063 184.77120463 -31.12993471 181.92763058 -32.875 178.4375 C-32.97627241 176.98030253 -33.05713326 175.5216349 -33.125 174.0625 C-33.4574005 170.19187821 -33.4574005 170.19187821 -36.1875 167.4375 C-37.074375 166.7775 -37.96125 166.1175 -38.875 165.4375 C-42.68994989 159.26591439 -43.41372764 153.42241631 -43.4375 146.3125 C-43.87106697 130.31134484 -47.06950212 116.59676471 -55.18725586 102.66699219 C-65.35588502 85.18489264 -69.05266227 68.38740032 -64.3125 48.4375 C-58.25618712 29.15403156 -45.62335958 15.10200717 -27.875 5.625 C-18.75643487 1.42903154 -9.99781708 -0.10215808 0 0 Z " fill="#020202" transform="translate(103.875,111.5625)"/>
<path d="M0 0 C-1.40357746 3.8738738 -3.24370001 7.06006722 -5.5 10.5 C-29.30809256 48.38230606 -35.43403178 92.49768347 -26 136 C-25.62617188 137.10859375 -25.25234375 138.2171875 -24.8671875 139.359375 C-23.80259578 142.60110474 -23.41851664 144.6116571 -24 148 C-25.82021889 150.45624582 -28.04148627 152.40336741 -30.3125 154.4375 C-51.44553987 174.49783747 -65.16754878 201.86873457 -72 230 C-72.30808594 231.25296875 -72.61617188 232.5059375 -72.93359375 233.796875 C-76.44303579 250.13581707 -75.75649416 267.36357316 -76 284 C-81.10498635 283.3298753 -85.69754057 282.27419229 -90.5 280.4375 C-91.1914209 280.17356445 -91.8828418 279.90962891 -92.59521484 279.63769531 C-122.28004946 267.95819477 -147.25134412 245.93790337 -164 219 C-164.59723877 218.04262939 -164.59723877 218.04262939 -165.20654297 217.06591797 C-180.42418983 192.06048482 -185.96608809 163.86791981 -185 135 C-184.95359375 133.13408203 -184.95359375 133.13408203 -184.90625 131.23046875 C-183.16482352 93.83333508 -164.13579306 58.9553054 -137.375 33.4375 C-125.59467444 22.79520128 -112.44706825 14.48552599 -98 8 C-96.87078125 7.46890625 -95.7415625 6.9378125 -94.578125 6.390625 C-65.6639915 -6.30019378 -30.42549096 -8.6598602 0 0 Z M-130 42 C-131.06992188 42.474375 -132.13984375 42.94875 -133.2421875 43.4375 C-150.68296117 51.97321982 -162.29992404 66.57761706 -168.96875 84.62109375 C-173.7495532 100.22510419 -172.44621424 117.76602602 -164.86230469 132.15917969 C-163.16813835 135.24854184 -161.43276963 138.3121962 -159.67236328 141.36425781 C-153.12807489 152.80752611 -149.24643934 164.81415479 -148.8046875 178.03515625 C-148.7727832 178.95224365 -148.74087891 179.86933105 -148.70800781 180.81420898 C-148.65400983 182.64267609 -148.61851041 184.47181484 -148.60449219 186.30102539 C-148.44915833 192.50452639 -147.3050562 197.6687975 -144 203 C-143.113125 203.66 -142.22625 204.32 -141.3125 205 C-139 207 -139 207 -138.6015625 209.0234375 C-138.49168719 210.59831701 -138.3915106 212.17390158 -138.30078125 213.75 C-137.69454213 218.28498355 -134.48344654 222.14990738 -131 225 C-130.34 225 -129.68 225 -129 225 C-129.1546875 226.423125 -129.1546875 226.423125 -129.3125 227.875 C-129.30164443 233.20508625 -126.91273921 237.64606171 -124 242 C-117.46697617 248.23903776 -109.10422364 247.40507883 -100.70703125 247.28125 C-93.95578822 247.0156099 -89.40235167 245.3407529 -84.5625 240.625 C-81.43828577 235.3763201 -80.75677414 231.08064641 -81 225 C-80.4225 224.773125 -79.845 224.54625 -79.25 224.3125 C-76.17841225 222.52074048 -74.87722199 221.06612925 -73 218 C-72.65971154 216.17506594 -72.37261784 214.33980052 -72.125 212.5 C-71.37377589 207.43769698 -71.37377589 207.43769698 -69.65234375 205.421875 C-68.10273517 204.27965737 -66.55139007 203.13979679 -65 202 C-61.65831969 196.06184978 -61.6150995 190.76921279 -61.5625 184.0625 C-61.11493586 168.29303254 -57.51480473 155.81914073 -50.04345703 141.94921875 C-48.34964086 138.78510355 -46.7368143 135.58143134 -45.125 132.375 C-44.57070312 131.28960937 -44.01640625 130.20421875 -43.4453125 129.0859375 C-37.43969353 116.26312943 -37.13631253 99.58365594 -41 86 C-41.29197266 84.90365234 -41.29197266 84.90365234 -41.58984375 83.78515625 C-46.3919153 67.61723489 -57.70038136 54.64538347 -72 46 C-89.42656695 36.76082604 -111.50733794 33.53469421 -130 42 Z " fill="#88C6FA" transform="translate(209,74)"/>
<path d="M0 0 C1.34771484 -0.03673828 1.34771484 -0.03673828 2.72265625 -0.07421875 C6.95602197 -0.09297813 9.46423037 -0.01249359 13.17578125 2.1640625 C15.69779491 5.02470325 16.34412112 7.68357256 17.125 11.375 C17.8675 11.519375 18.61 11.66375 19.375 11.8125 C22.125 12.375 22.125 12.375 24.1875 13.0625 C26.17023419 13.57942767 26.17023419 13.57942767 27.9375 12.4375 C31.1624285 10.87110616 33.58727952 11.00260837 37.125 11.375 C41.34248317 13.9054899 44.32006928 17.75199343 47.4765625 21.47265625 C49.06816037 23.38035751 49.06816037 23.38035751 50.81640625 24.9375 C52.125 26.375 52.125 26.375 52.4375 29.3125 C52.125 32.375 52.125 32.375 51.0625 34.4375 C49.77288311 37.10270824 50.3691551 38.55775993 51.125 41.375 C51.45833333 43.04166667 51.79166667 44.70833333 52.125 46.375 C52.846875 46.4575 53.56875 46.54 54.3125 46.625 C58.02353513 47.61460937 59.53955766 48.47656049 62.125 51.375 C62.83639907 55.05126951 62.7310633 58.64350027 62.625 62.375 C62.62886719 63.87160156 62.62886719 63.87160156 62.6328125 65.3984375 C62.51986682 73.82418523 62.51986682 73.82418523 59.125 77.375 C57.64 77.7771875 57.64 77.7771875 56.125 78.1875 C52.80180713 79.14622303 52.80180713 79.14622303 51.1875 82.6875 C49.7892782 87.54015215 50.69793962 89.96036251 52.125 94.6875 C52.125 99.54654131 50.46292798 101.01318045 47.15625 104.37890625 C46.4859375 105.03761719 45.815625 105.69632812 45.125 106.375 C44.5371875 107.04402344 43.949375 107.71304688 43.34375 108.40234375 C40.41583231 111.656325 38.73150699 113.20024375 34.4375 114.4375 C31.125 114.375 31.125 114.375 29.19921875 113.34765625 C25.97114807 111.83392819 23.61204849 112.50728316 20.2421875 113.3359375 C17.00087817 114.92669079 16.17427478 117.20931575 14.9765625 120.5 C14.125 122.375 14.125 122.375 11.125 124.375 C7.49527768 124.85924593 3.84610354 124.79140619 0.1875 124.8125 C-0.81474609 124.84537109 -1.81699219 124.87824219 -2.84960938 124.91210938 C-10.21023179 124.96612328 -10.21023179 124.96612328 -13.51953125 122.0234375 C-14.85541628 119.41326443 -15.54296842 117.28027629 -15.875 114.375 C-16.9578125 114.1584375 -16.9578125 114.1584375 -18.0625 113.9375 C-19.86625691 113.57674862 -21.66085302 113.16416138 -23.4375 112.6875 C-26.37744895 112.31058347 -27.29289876 113.04482664 -29.875 114.375 C-32.51171875 114.8828125 -32.51171875 114.8828125 -35.875 114.375 C-38.8352489 112.34615114 -41.25390367 109.87873858 -43.75 107.3125 C-44.43835938 106.65572266 -45.12671875 105.99894531 -45.8359375 105.32226562 C-49.12845728 102.00688112 -50.74753073 100.31363733 -51.390625 95.578125 C-50.875 92.375 -50.875 92.375 -49.75 89.1875 C-48.5760315 86.45585776 -48.5760315 86.45585776 -49.75 84.1875 C-50.12125 83.589375 -50.4925 82.99125 -50.875 82.375 C-50.875 81.385 -50.875 80.395 -50.875 79.375 C-51.9475 79.148125 -53.02 78.92125 -54.125 78.6875 C-58.49839658 77.1568112 -59.53852875 76.32318027 -61.875 72.375 C-62.47674913 69.02902258 -62.47928785 65.76718994 -62.4375 62.375 C-62.46134766 61.48554688 -62.48519531 60.59609375 -62.50976562 59.6796875 C-62.49952546 55.10574495 -62.37857283 53.02648696 -59.5078125 49.3125 C-56.875 47.375 -56.875 47.375 -54.1875 46.375 C-51.68810269 45.5653942 -51.68810269 45.5653942 -50.5625 43.125 C-49.62456132 39.37324528 -49.10617984 35.91264032 -50.875 32.375 C-51.48201231 29.18818539 -51.41545572 27.18733131 -49.59375 24.44921875 C-47.77610633 22.32174945 -45.85142662 20.35522014 -43.875 18.375 C-43.00681641 17.33472656 -43.00681641 17.33472656 -42.12109375 16.2734375 C-38.99994754 12.88938696 -37.14008263 11.42663603 -32.4296875 11.234375 C-29.99335174 11.44799943 -27.5619908 11.73498708 -25.14453125 12.10546875 C-21.62053455 12.39597744 -19.90506665 12.16086229 -16.875 10.375 C-15.54626786 8.53074196 -15.54626786 8.53074196 -14.75 6.375 C-11.80143305 -0.72243548 -6.79742907 0.00966917 0 0 Z " fill="#020302" transform="translate(310.875,342.625)"/>
<path d="M0 0 C2.18010355 2.02127019 3.60398548 3.85451869 4.91015625 6.51953125 C5.25473877 7.20490967 5.59932129 7.89028809 5.9543457 8.59643555 C6.32003662 9.32773682 6.68572754 10.05903809 7.0625 10.8125 C22.30848754 40.32399551 46.19037563 62.32084995 75.14794922 77.98730469 C78.12388505 79.61453667 81.06033633 81.30827097 84 83 C80.52635597 87.41982319 76.94782851 90.95105589 72.5 94.375 C71.88688965 94.84977783 71.2737793 95.32455566 70.64208984 95.8137207 C64.69654475 100.3450787 58.52137172 104.34020017 52 108 C51.41057617 108.3309668 50.82115234 108.66193359 50.21386719 109.00292969 C42.25397981 113.40170404 34.10847741 116.88143606 25.5 119.8125 C24.69498047 120.09037354 23.88996094 120.36824707 23.06054688 120.65454102 C9.82641921 124.95982384 -3.03968853 126.47082387 -16.88598633 126.28125 C-19.22428071 126.24950059 -21.56189979 126.24019999 -23.90039062 126.234375 C-25.40625822 126.2252234 -26.91211902 126.21485359 -28.41796875 126.203125 C-29.10755173 126.19887512 -29.7971347 126.19462524 -30.50761414 126.19024658 C-34.1057129 126.13695755 -37.53374386 126.01617421 -41 125 C-42.47475692 122.05048615 -42.18261476 119.05151529 -42.203125 115.81640625 C-42.21022995 115.09369034 -42.2173349 114.37097443 -42.22465515 113.62635803 C-42.44873027 84.04745327 -38.8412795 58.17606644 -24 32 C-23.62504395 31.33661621 -23.25008789 30.67323242 -22.86376953 29.98974609 C-16.52119258 18.95033373 -9.0157458 9.0157458 0 0 Z " fill="#B5E99C" transform="translate(191,237)"/>
<path d="M0 0 C21.77255664 5.61564847 40.91168531 15.38185725 58 30 C58.53641113 30.45665039 59.07282227 30.91330078 59.62548828 31.38378906 C76.32107861 45.74679462 93.02822594 66.35231904 99 88 C63.71897431 113.09505214 25.10912344 124.11580985 -18.125 117 C-21.75701843 116.36741229 -25.38152076 115.70586158 -29 115 C-29 110.32892825 -28.02930312 109.08286704 -25.5 105.25 C-13.90736495 87.08708152 -5.69356156 67.24640628 -2 46 C-1.77441406 44.71609375 -1.54882812 43.4321875 -1.31640625 42.109375 C0.69603607 28.17494677 0.18630469 14.04307437 0 0 Z " fill="#B4AC98" transform="translate(333,199)"/>
<path d="M0 0 C24.37821806 7.24336831 46.8452203 26.08798683 62 46 C62.66515625 46.84949219 63.3303125 47.69898438 64.015625 48.57421875 C71.81336372 58.84328805 77.97837985 70.05305379 82.9375 81.9375 C83.21988525 82.61055176 83.50227051 83.28360352 83.79321289 83.97705078 C85.75974158 88.88403104 86.9856148 93.81694963 88 99 C87.31711914 98.98952637 86.63423828 98.97905273 85.93066406 98.96826172 C47.24737095 98.45637225 9.6646891 103.87976429 -22.14453125 127.75 C-24 129 -24 129 -26 129 C-36.91324496 95.31445056 -31.29761782 56.03323707 -15.88427734 24.734375 C-11.3398972 15.94211624 -6.07686403 7.81547635 0 0 Z " fill="#FDA272" transform="translate(225,80)"/>
<path d="M0 0 C1.31355469 -0.00773438 2.62710938 -0.01546875 3.98046875 -0.0234375 C5.25277344 -0.02085937 6.52507812 -0.01828125 7.8359375 -0.015625 C8.97337402 -0.01336914 10.11081055 -0.01111328 11.28271484 -0.00878906 C15.01599087 0.28027395 18.06774595 1.11262746 21.625 2.25 C28.9103293 34.1032409 18.23508219 72.70213395 1.4140625 99.921875 C-1.62992818 104.5614147 -4.87801574 108.94245648 -8.375 113.25 C-12.95240881 112.61620493 -16.79235683 110.81069734 -20.875 108.75 C-21.57842529 108.39542725 -22.28185059 108.04085449 -23.0065918 107.67553711 C-49.87655867 93.78983752 -71.12445739 71.5094053 -85.1875 45 C-85.72189697 43.9992041 -86.25629395 42.9984082 -86.80688477 41.96728516 C-87.28955811 41.0241748 -87.77223145 40.08106445 -88.26953125 39.109375 C-88.70112549 38.26858398 -89.13271973 37.42779297 -89.57739258 36.56152344 C-90.48883862 33.92008753 -90.45835102 32.80095149 -89.375 30.25 C-65.6516316 9.29843409 -30.8991035 -0.18520941 0 0 Z " fill="#D8B685" transform="translate(295.375,193.75)"/>
<path d="M0 0 C7.73487747 4.18541171 13.4737333 10.13233992 17.25 18.0625 C19.326966 27.408847 18.21826915 35.85988247 14 44.4375 C13.0371479 45.79790201 12.04736821 47.14104422 11 48.4375 C11.72574219 48.69660156 12.45148438 48.95570312 13.19921875 49.22265625 C24.44657287 54.10121571 32.01392756 64.57750594 36.9375 75.4375 C39.05541035 80.97720429 40.53457038 86.46813079 40 92.4375 C38.22788965 95.49286267 37.12253981 96.87623009 34 98.4375 C31.097648 98.55701091 28.21857842 98.61589801 25.31518555 98.63037109 C23.96617157 98.64263733 23.96617157 98.64263733 22.58990479 98.65515137 C19.60551627 98.68002008 16.62117534 98.69652466 13.63671875 98.7109375 C12.61876535 98.71626118 11.60081196 98.72158485 10.55201149 98.72706985 C5.16464617 98.75380714 -0.22269592 98.77318069 -5.61010742 98.78759766 C-11.17897137 98.80425205 -16.74724426 98.84903504 -22.31588459 98.8999691 C-26.59411817 98.93359872 -30.87221068 98.94517038 -35.15056419 98.95082474 C-37.20350858 98.95754846 -39.25644333 98.97279947 -41.30925941 98.99671555 C-44.18233262 99.02827948 -47.05380141 99.02841708 -49.92700195 99.02099609 C-50.77550217 99.03740143 -51.62400238 99.05380676 -52.49821472 99.07070923 C-56.85146327 99.0246667 -58.49382671 98.8376235 -62.02775574 96.0440979 C-64.72418631 92.48038605 -64.65527515 90.50251228 -64.41796875 86.1796875 C-62.32693413 72.46093697 -54.29823833 61.32479859 -44 52.4375 C-41.69857647 50.85143903 -39.52782513 49.64645984 -37 48.4375 C-37.97559821 45.95895319 -38.96975756 43.50416581 -40.0703125 41.078125 C-43.84314499 32.52637136 -44.00659659 25.72067464 -41.02734375 16.8515625 C-37.56453515 8.71462063 -31.48223209 3.88047775 -24 -0.5625 C-17.0159651 -2.89051163 -6.87168097 -2.82100587 0 0 Z " fill="#040202" transform="translate(399,65.5625)"/>
<path d="M0 0 C2.3125 0.125 2.3125 0.125 5 1 C5.41378906 1.95003906 5.82757813 2.90007812 6.25390625 3.87890625 C8.50121282 7.8959039 10.32164702 8.38600051 14.625 9.8125 C20.9798995 11.9798995 20.9798995 11.9798995 22 13 C23.4555937 13.09858603 24.91607919 13.12972143 26.375 13.125 C27.16648437 13.12757813 27.95796875 13.13015625 28.7734375 13.1328125 C31.17343496 13.08617666 31.17343496 13.08617666 34 12 C34.99 12.99 34.99 12.99 36 14 C35.80078125 16.21484375 35.80078125 16.21484375 35.3125 18.9375 C34.52563883 25.74206078 36.88979459 30.10987648 40 36 C40.32097656 36.89332031 40.64195312 37.78664063 40.97265625 38.70703125 C42.46057333 42.02797166 44.73999343 42.65347555 48 44 C47.875 46.25 47.875 46.25 47 49 C46.0925 49.495 45.185 49.99 44.25 50.5 C39.590263 53.16110281 38.6303722 58.39901421 36.98046875 63.19921875 C36 66 36 66 35 67 C35.08984301 68.85772162 35.24611861 70.71247985 35.4375 72.5625 C35.59025391 74.08037109 35.59025391 74.08037109 35.74609375 75.62890625 C35.87177734 76.80259766 35.87177734 76.80259766 36 78 C32.85330306 79.84652326 32.23928449 80.04617771 28.4375 79.3125 C22.59271132 78.34931385 18.06883945 81.43148494 13 84 C12.10796875 84.32097656 11.2159375 84.64195312 10.296875 84.97265625 C7.66134322 85.90479403 7.66134322 85.90479403 5.9375 89.125 C5.298125 90.07375 4.65875 91.0225 4 92 C2.68 92 1.36 92 0 92 C-0.33386719 91.08992188 -0.66773438 90.17984375 -1.01171875 89.2421875 C-3.63170744 84.96990731 -6.28026081 83.93296486 -10.8125 82.125 C-11.51181641 81.81820312 -12.21113281 81.51140625 -12.93164062 81.1953125 C-18.89075241 78.69794853 -23.68003967 78.51295051 -30 80 C-30.8640656 76.83175948 -30.98988399 74.9512592 -30.3125 71.6875 C-29.94932222 67.40200225 -30.76263953 65.74429495 -32.83203125 62.12109375 C-34.07353828 59.86645056 -34.95280931 57.58830867 -35.875 55.1875 C-37.37273595 51.7127526 -37.87564504 51.07891757 -41.25 48.9375 C-42.1575 48.628125 -43.065 48.31875 -44 48 C-44 46.68 -44 45.36 -44 44 C-42.6078125 43.4121875 -42.6078125 43.4121875 -41.1875 42.8125 C-35.05297162 39.32423877 -33.25847239 32.40416143 -31 26 C-29.91040881 21.64163526 -30.05983269 18.38744744 -31 14 C-28.04408138 13.21755095 -26.29718062 12.91706587 -23.3125 13.75 C-18.84403631 14.08724254 -16.32815825 12.44573081 -12.46875 10.32421875 C-10.34262133 9.18377948 -8.33058567 8.35536893 -6.0625 7.5625 C-2.30713895 5.64649946 -1.46434735 3.87621357 0 0 Z " fill="#030302" transform="translate(309,359)"/>
<path d="M0 0 C8.80798212 6.97878493 15.42913798 18.64217763 17.79296875 29.55859375 C19.24406295 46.01900574 15.65306631 57.60904516 7.51611328 71.76342773 C3.70341005 78.47358692 1.00798332 85.14606691 -1.20703125 92.55859375 C-1.4390625 93.32558594 -1.67109375 94.09257812 -1.91015625 94.8828125 C-3.24107981 99.7216703 -3.74013255 104.57834099 -4.20703125 109.55859375 C-7.50703125 109.55859375 -10.80703125 109.55859375 -14.20703125 109.55859375 C-14.20703125 93.71859375 -14.20703125 77.87859375 -14.20703125 61.55859375 C-7.77203125 60.56859375 -7.77203125 60.56859375 -1.20703125 59.55859375 C5.19498573 56.48913355 7.79537578 53.91349085 10.79296875 47.55859375 C11.28796875 46.56859375 11.28796875 46.56859375 11.79296875 45.55859375 C12.54528002 38.57284626 12.47625918 32.94545045 8.21484375 27.17578125 C4.08626575 22.48009088 -0.06543402 19.99016787 -6.34375 19.3359375 C-12.82856172 19.08271056 -17.38064183 20.78388412 -22.89453125 24.24609375 C-29.01226911 30.36383161 -29.89849058 37.16628743 -30.20703125 45.55859375 C-31.52703125 45.55859375 -32.84703125 45.55859375 -34.20703125 45.55859375 C-34.2328125 44.85734375 -34.25859375 44.15609375 -34.28515625 43.43359375 C-34.7247528 36.08034244 -35.55829925 29.99005013 -41.109375 24.76953125 C-47.08501403 20.07359146 -51.82485113 19.14030235 -59.3828125 19.2109375 C-65.07969059 19.91221295 -68.7315 23.00540296 -72.58203125 27.05859375 C-76.296127 32.77258721 -77.11715599 37.81584164 -76.20703125 44.55859375 C-74.1380575 51.71073142 -70.59766299 55.70212105 -64.29296875 59.5 C-60.00725206 61.10669387 -60.00725206 61.10669387 -50.20703125 61.55859375 C-50.20703125 77.39859375 -50.20703125 93.23859375 -50.20703125 109.55859375 C-53.17703125 109.55859375 -56.14703125 109.55859375 -59.20703125 109.55859375 C-60.19499146 105.67118508 -61.15588628 101.79735468 -61.99609375 97.875 C-65.17895038 83.58189148 -71.54086585 71.14996284 -78.76171875 58.48828125 C-83.54288865 48.79672065 -83.68412654 36.71747037 -81.51953125 26.2265625 C-76.61743177 11.94919776 -67.53396665 0.98890733 -54.18359375 -6.03125 C-35.68551102 -14.58599335 -16.67463682 -10.89016104 0 0 Z " fill="#FCDE75" transform="translate(136.20703125,138.44140625)"/>
<path d="M0 0 C2.3125 0.125 2.3125 0.125 5 1 C5.41378906 1.95003906 5.82757813 2.90007812 6.25390625 3.87890625 C8.50121282 7.8959039 10.32164702 8.38600051 14.625 9.8125 C20.9798995 11.9798995 20.9798995 11.9798995 22 13 C23.4555937 13.09858603 24.91607919 13.12972143 26.375 13.125 C27.16648437 13.12757813 27.95796875 13.13015625 28.7734375 13.1328125 C31.17343496 13.08617666 31.17343496 13.08617666 34 12 C34.99 12.99 34.99 12.99 36 14 C35.80078125 16.21484375 35.80078125 16.21484375 35.3125 18.9375 C34.52563883 25.74206078 36.88979459 30.10987648 40 36 C40.32097656 36.89332031 40.64195312 37.78664063 40.97265625 38.70703125 C42.46057333 42.02797166 44.73999343 42.65347555 48 44 C47.875 46.25 47.875 46.25 47 49 C46.0925 49.495 45.185 49.99 44.25 50.5 C39.590263 53.16110281 38.6303722 58.39901421 36.98046875 63.19921875 C36 66 36 66 35 67 C35.08984301 68.85772162 35.24611861 70.71247985 35.4375 72.5625 C35.59025391 74.08037109 35.59025391 74.08037109 35.74609375 75.62890625 C35.87177734 76.80259766 35.87177734 76.80259766 36 78 C32.85330306 79.84652326 32.23928449 80.04617771 28.4375 79.3125 C22.59271132 78.34931385 18.06883945 81.43148494 13 84 C12.10796875 84.32097656 11.2159375 84.64195312 10.296875 84.97265625 C7.66134322 85.90479403 7.66134322 85.90479403 5.9375 89.125 C5.298125 90.07375 4.65875 91.0225 4 92 C2.68 92 1.36 92 0 92 C-0.33386719 91.08992188 -0.66773438 90.17984375 -1.01171875 89.2421875 C-3.63170744 84.96990731 -6.28026081 83.93296486 -10.8125 82.125 C-11.51181641 81.81820312 -12.21113281 81.51140625 -12.93164062 81.1953125 C-18.89075241 78.69794853 -23.68003967 78.51295051 -30 80 C-30.8640656 76.83175948 -30.98988399 74.9512592 -30.3125 71.6875 C-29.94932222 67.40200225 -30.76263953 65.74429495 -32.83203125 62.12109375 C-34.07353828 59.86645056 -34.95280931 57.58830867 -35.875 55.1875 C-37.37273595 51.7127526 -37.87564504 51.07891757 -41.25 48.9375 C-42.1575 48.628125 -43.065 48.31875 -44 48 C-44 46.68 -44 45.36 -44 44 C-42.6078125 43.4121875 -42.6078125 43.4121875 -41.1875 42.8125 C-35.05297162 39.32423877 -33.25847239 32.40416143 -31 26 C-29.91040881 21.64163526 -30.05983269 18.38744744 -31 14 C-28.04408138 13.21755095 -26.29718062 12.91706587 -23.3125 13.75 C-18.84403631 14.08724254 -16.32815825 12.44573081 -12.46875 10.32421875 C-10.34262133 9.18377948 -8.33058567 8.35536893 -6.0625 7.5625 C-2.30713895 5.64649946 -1.46434735 3.87621357 0 0 Z M-26 27 C-31.85936345 35.91081679 -32.2898851 45.2835192 -30.55859375 55.640625 C-28.10979097 64.4501545 -21.92847516 71.11740969 -14.24609375 75.78125 C-6.19747264 80.1485018 1.01469429 81.3393162 10.08984375 79.30859375 C19.78771141 76.38578118 26.42086953 72.03923475 31.74609375 63.34765625 C36.32787989 54.76929653 37.64171327 45.827937 34.875 36.375 C31.18410616 26.73383338 24.89985256 19.11381103 15.5625 14.625 C0.04868275 9.05230461 -16.05181207 13.81233287 -26 27 Z " fill="#F5D872" transform="translate(309,359)"/>
<path d="M0 0 C2.875 1.5625 2.875 1.5625 5 4 C5.71735462 7.45634498 5.80507118 9.67968327 3.92578125 12.76171875 C0.80794255 16.56291936 -2.87049364 19.74783876 -6.60546875 22.92578125 C-9.59008238 25.51114804 -12.48111124 28.18898745 -15.375 30.875 C-36.75864756 50.6574193 -36.75864756 50.6574193 -41.40234375 51.3671875 C-44.89667667 50.87325172 -46.21378165 49.48682636 -48.75 47.0625 C-49.61109375 46.24652344 -50.4721875 45.43054688 -51.359375 44.58984375 C-52.23078125 43.73519531 -53.1021875 42.88054687 -54 42 C-54.85078125 41.17628906 -55.7015625 40.35257813 -56.578125 39.50390625 C-64.77967185 31.44787072 -64.77967185 31.44787072 -65.4375 27.125 C-65 24 -65 24 -62.875 21.125 C-60 19 -60 19 -57.1875 18.25 C-52.3123391 19.39709668 -49.48664978 22.53560543 -46 26 C-44.7625 27.2065625 -44.7625 27.2065625 -43.5 28.4375 C-43.005 28.953125 -42.51 29.46875 -42 30 C-38.18437605 28.70176525 -35.92909121 27.25033142 -33.1875 24.3125 C-30.01691325 21.01792383 -26.75184763 17.97735721 -23.28515625 15 C-19.83450425 11.97994218 -16.47936257 8.85652877 -13.12402344 5.73120117 C-6.13244569 -0.73589348 -6.13244569 -0.73589348 0 0 Z " fill="#040302" transform="translate(301,215)"/>
<path d="M0 0 C4.77234543 3.92724259 9.19149107 8.43350226 11.625 14.1875 C11.625 15.1775 11.625 16.1675 11.625 17.1875 C-10.485 17.1875 -32.595 17.1875 -55.375 17.1875 C-51.75218195 6.31904586 -45.43256834 0.46360143 -35.375 -4.8125 C-23.86032433 -9.62772801 -10.0270475 -7.11043482 0 0 Z " fill="#85C2F6" transform="translate(408.375,130.8125)"/>
<path d="M0 0 C4.41854291 3.11306432 8.02390999 6.75922996 9.75 11.9375 C10.56856292 17.86623431 9.85384614 22.23265991 6.359375 27.140625 C3.01422256 30.87550394 -0.5439524 33.4111947 -5.51953125 34.37890625 C-10.96928053 34.66671243 -15.02164773 33.37698058 -19.25 29.9375 C-23.42051671 25.79939663 -25.38436169 22.14563869 -25.625 16.25 C-25.55178107 10.67722596 -23.98433578 7.05095616 -20.25 2.9375 C-14.45728057 -2.26712608 -7.14982488 -2.33744275 0 0 Z " fill="#E8EBED" transform="translate(319.25,389.0625)"/>
<path d="M0 0 C4.4331235 2.13739883 7.12530646 4.4174158 9 9 C9.53580592 14.6259622 9.18905893 18.16142783 6 23 C1.57701355 27.09126246 -1.8605105 28.37061749 -7.9375 28.28125 C-12.30494274 27.68568963 -15.01306375 25.08562988 -17.875 21.9375 C-19.65654198 17.28569593 -19.88893773 12.8996568 -19 8 C-14.41070603 -0.02775582 -8.7733332 -0.89220338 0 0 Z " fill="#F2D8CA" transform="translate(392,80)"/>
<path d="M0 0 C1.32 0 2.64 0 4 0 C4 15.84 4 31.68 4 48 C2.68 48 1.36 48 0 48 C0 32.16 0 16.32 0 0 Z " fill="#FEE076" transform="translate(102,200)"/>
<path d="M0 0 C17.82 0 35.64 0 54 0 C53.67 0.99 53.34 1.98 53 3 C35.84 3 18.68 3 1 3 C0.67 2.01 0.34 1.02 0 0 Z " fill="#CFCFD4" transform="translate(77,264)"/>
<path d="M0 0 C2.82848685 2.45631752 4.11881922 5.0324226 5.625 8.4375 C6.05039063 9.38496094 6.47578125 10.33242187 6.9140625 11.30859375 C11.22280316 21.98745099 10.28753955 36.12927416 6.15625 46.6640625 C4.77209517 49.46042936 3.20983247 51.79016753 1 54 C1.36084339 51.25759023 1.75956354 48.64073758 2.734375 46.04296875 C7.19559757 34.02712871 6.32720874 18.92959841 2 7 C1.63648438 6.29746094 1.27296875 5.59492188 0.8984375 4.87109375 C0 3 0 3 0 0 Z " fill="#F1C55F" transform="translate(145,150)"/>
<path d="M0 0 C1.31690141 6.34507042 1.31690141 6.34507042 0.0625 8.9375 C-3.25508697 10.64655995 -6.30441203 10.18175023 -10 10 C-10.35915493 2.6971831 -10.35915493 2.6971831 -8.9375 -0.0625 C-5.8584134 -1.55238061 -3.25143042 -0.67482518 0 0 Z " fill="#F4D771" transform="translate(132,174)"/>
<path d="M0 0 C1.8125 1 1.8125 1 3 3 C3.24667073 5.71874043 3.13481122 8.25883852 3 11 C-4.38804781 11.36334661 -4.38804781 11.36334661 -7 9.8125 C-8.36703913 7.33474158 -8.41826612 5.78844081 -8 3 C-5.85607122 -0.27231235 -3.76836426 -0.56525464 0 0 Z " fill="#F6D972" transform="translate(83,173)"/>
<path d="M0 0 C11.22 0 22.44 0 34 0 C34 0.99 34 1.98 34 3 C22.78 3 11.56 3 0 3 C0 2.01 0 1.02 0 0 Z " fill="#B1B1B5" transform="translate(87,283)"/>
<path d="M0 0 C0.66 0.33 1.32 0.66 2 1 C1.52949219 2.01578125 1.05898437 3.0315625 0.57421875 4.078125 C-4.49203732 15.20245106 -7.97805641 25.73667696 -9 38 C-9.99 38 -10.98 38 -12 38 C-11.42258631 23.85336465 -7.12161291 12.04272744 0 0 Z " fill="#F4C760" transform="translate(141,210)"/>
<path d="M0 0 C0.99 0 1.98 0 3 0 C2.67 0.99 2.34 1.98 2 3 C-15.16 3 -32.32 3 -50 3 C-50 2.67 -50 2.34 -50 2 C-33.5 2 -17 2 0 2 C0 1.34 0 0.68 0 0 Z " fill="#BEBEC3" transform="translate(128,264)"/>
<path d="M0 0 C4.95 0 9.9 0 15 0 C14.67 0.99 14.34 1.98 14 3 C9.38 3 4.76 3 0 3 C0 2.01 0 1.02 0 0 Z " fill="#8F8F92" transform="translate(97,302)"/>
<path d="M0 0 C0.99 0 1.98 0 3 0 C3 0.99 3 1.98 3 3 C-8.22 3 -19.44 3 -31 3 C-31 2.67 -31 2.34 -31 2 C-20.77 2 -10.54 2 0 2 C0 1.34 0 0.68 0 0 Z " fill="#97979A" transform="translate(118,283)"/>
</svg>
